<svg height="512" viewBox="0 0 256 256" width="512" xmlns="http://www.w3.org/2000/svg"><rect fill="#e0ebfc" height="180.393" rx="7" width="235.743" x="10.128" y="25.87"/><path d="m238.872 208.263h-221.744a9.01 9.01 0 0 1 -9-9v-166.393a9.01 9.01 0 0 1 9-9h221.744a9.01 9.01 0 0 1 9 9v166.393a9.01 9.01 0 0 1 -9 9zm-221.744-180.393a5.006 5.006 0 0 0 -5 5v166.393a5.006 5.006 0 0 0 5 5h221.744a5.006 5.006 0 0 0 5-5v-166.393a5.006 5.006 0 0 0 -5-5z" fill="#3762cc"/><path d="m199.39 37.095h10.884v106.504h-10.884z" fill="#a4c9ff"/><path d="m221.158 37.095h10.884v106.504h-10.884z" fill="#a4c9ff"/><path d="m232.041 143.6h-32.651l14.327 22.786a2.361 2.361 0 0 0 4 0z" fill="#f9cfcf"/><path d="m210.274 37.095h10.884v106.504h-10.884z" fill="#4671c6"/><path d="m205.291 3.6h20.85a5.9 5.9 0 0 1 5.9 5.9v16.37a0 0 0 0 1 0 0h-32.651a0 0 0 0 1 0 0v-16.37a5.9 5.9 0 0 1 5.9-5.9z" fill="#f9a7a7"/><path d="m199.39 25.87h32.652v11.225h-32.652z" fill="#e0ebfc"/><path d="m208.418 157.958 5.3 8.427a2.361 2.361 0 0 0 4 0l5.3-8.427z" fill="#4671c6"/><path d="m210.273 145.6h-10.883a2 2 0 0 1 -2-2v-106.5a2 2 0 0 1 2-2h10.883a2 2 0 0 1 2 2v106.5a2 2 0 0 1 -2 2zm-8.883-4h6.883v-102.5h-6.883z" fill="#3762cc"/><path d="m232.042 145.6h-10.884a2 2 0 0 1 -2-2v-106.5a2 2 0 0 1 2-2h10.884a2 2 0 0 1 2 2v106.5a2 2 0 0 1 -2 2zm-8.884-4h6.884v-102.5h-6.884z" fill="#3762cc"/><path d="m215.716 169.489a4.34 4.34 0 0 1 -3.692-2.039l-14.324-22.786a2 2 0 0 1 1.693-3.065h32.652a2 2 0 0 1 1.692 3.065l-14.33 22.786a4.337 4.337 0 0 1 -3.691 2.039zm-12.706-23.889 12.4 19.722a.363.363 0 0 0 .611 0l12.4-19.721z" fill="#3762cc"/><path d="m221.158 145.6h-10.885a2 2 0 0 1 -2-2v-106.5a2 2 0 0 1 2-2h10.885a2 2 0 0 1 2 2v106.5a2 2 0 0 1 -2 2zm-8.885-4h6.885v-102.5h-6.885z" fill="#3762cc"/><path d="m232.042 27.87h-32.652a2 2 0 0 1 -2-2v-16.37a7.909 7.909 0 0 1 7.9-7.9h20.85a7.91 7.91 0 0 1 7.9 7.9v16.37a2 2 0 0 1 -1.998 2zm-30.652-4h28.652v-14.37a3.905 3.905 0 0 0 -3.9-3.9h-20.85a3.905 3.905 0 0 0 -3.9 3.9z" fill="#3762cc"/><path d="m232.042 39.1h-32.652a2 2 0 0 1 -2-2v-11.23a2 2 0 0 1 2-2h32.652a2 2 0 0 1 2 2v11.23a2 2 0 0 1 -2 2zm-30.652-4h28.652v-7.23h-28.652z" fill="#3762cc"/><path d="m215.716 169.489a4.34 4.34 0 0 1 -3.692-2.039l-5.3-8.428a2 2 0 0 1 1.693-3.064h14.6a2 2 0 0 1 1.693 3.064l-5.3 8.428a4.337 4.337 0 0 1 -3.694 2.039zm-3.677-9.531 3.371 5.363a.363.363 0 0 0 .611 0l3.372-5.362z" fill="#3762cc"/><rect fill="#a4c9ff" height="37.361" rx="2.883" transform="matrix(0 1 -1 0 314.929 -17.203)" width="207.081" x="62.526" y="130.183"/><g fill="#3762cc"><path d="m184.747 57.172h-7.568a2 2 0 0 1 0-4h7.568a2 2 0 0 1 0 4z"/><path d="m184.716 71.586h-11.466a2 2 0 0 1 0-4h11.466a2 2 0 0 1 0 4z"/><path d="m184.747 86h-7.568a2 2 0 1 1 0-4h7.568a2 2 0 0 1 0 4z"/><path d="m184.716 100.414h-11.466a2 2 0 0 1 0-4h11.466a2 2 0 0 1 0 4z"/><path d="m184.747 114.828h-7.568a2 2 0 0 1 0-4h7.568a2 2 0 0 1 0 4z"/><path d="m184.716 129.242h-11.466a2 2 0 0 1 0-4h11.466a2 2 0 1 1 0 4z"/><path d="m184.747 143.656h-7.568a2 2 0 0 1 0-4h7.568a2 2 0 0 1 0 4z"/><path d="m184.716 158.07h-11.466a2 2 0 0 1 0-4h11.466a2 2 0 0 1 0 4z"/><path d="m184.747 172.484h-7.568a2 2 0 0 1 0-4h7.568a2 2 0 0 1 0 4z"/><path d="m184.716 186.9h-11.466a2 2 0 0 1 0-4h11.466a2 2 0 0 1 0 4z"/><path d="m184.747 201.312h-7.568a2 2 0 1 1 0-4h7.568a2 2 0 0 1 0 4z"/><path d="m184.716 215.726h-11.466a2 2 0 0 1 0-4h11.466a2 2 0 0 1 0 4z"/><path d="m184.747 230.14h-7.568a2 2 0 1 1 0-4h7.568a2 2 0 0 1 0 4z"/><path d="m184.747 244.554h-7.568a2 2 0 0 1 0-4h7.568a2 2 0 0 1 0 4z"/><path d="m181.864 254.4h-31.595a4.888 4.888 0 0 1 -4.883-4.882v-201.312a4.888 4.888 0 0 1 4.883-4.883h31.6a4.888 4.888 0 0 1 4.883 4.883v201.315a4.888 4.888 0 0 1 -4.888 4.879zm-31.595-207.077a.884.884 0 0 0 -.883.883v201.315a.884.884 0 0 0 .883.882h31.6a.884.884 0 0 0 .883-.882v-201.315a.884.884 0 0 0 -.883-.883z"/></g><path d="m67.841 150.083a2.781 2.781 0 0 1 .492 1.581v3.468h23.713v-3.468a2.782 2.782 0 0 1 .493-1.581 159.924 159.924 0 0 1 12.589-15.759 33.446 33.446 0 1 0 -49.9-.024 161.3 161.3 0 0 1 12.588 15.751z" fill="#ffea92"/><path d="m92.046 157.132h-23.713a2 2 0 0 1 -2-2v-3.468a.776.776 0 0 0 -.137-.443l-.018-.027a157.434 157.434 0 0 0 -12.439-15.562 35.446 35.446 0 1 1 52.88.025 155.939 155.939 0 0 0 -12.434 15.561.782.782 0 0 0 -.139.446v3.468a2 2 0 0 1 -2 2zm-22.559-8.185a4.757 4.757 0 0 1 .846 2.717v1.468h19.713v-1.468a4.766 4.766 0 0 1 .846-2.716 159.734 159.734 0 0 1 12.745-15.958 31.446 31.446 0 1 0 -46.914-.022 160.4 160.4 0 0 1 12.764 15.979z" fill="#3762cc"/><path d="m92.766 155.133h-25.152a1.64 1.64 0 0 0 -1.64 1.64v5.65a1.64 1.64 0 0 0 1.64 1.64h.547a1.641 1.641 0 0 0 -1.641 1.637v5.65a1.643 1.643 0 0 0 1 1.512v.128a11.756 11.756 0 0 0 11.76 11.76h1.82a11.756 11.756 0 0 0 11.756-11.756v-.128a1.643 1.643 0 0 0 1-1.512v-5.654a1.641 1.641 0 0 0 -1.641-1.641h.547a1.64 1.64 0 0 0 1.64-1.64v-5.65a1.64 1.64 0 0 0 -1.636-1.636z" fill="#4671c6"/><path d="m80.19 68.531a2.77 2.77 0 0 1 -2.77-2.77v-15.608a2.77 2.77 0 1 1 5.54 0v15.608a2.77 2.77 0 0 1 -2.77 2.77z" fill="#ffea92"/><path d="m53.861 78.252a2.761 2.761 0 0 1 -1.959-.811l-11.036-11.041a2.77 2.77 0 1 1 3.917-3.917l11.036 11.04a2.77 2.77 0 0 1 -1.958 4.729z" fill="#ffea92"/><path d="m106.519 78.252a2.77 2.77 0 0 1 -1.958-4.729l11.039-11.036a2.77 2.77 0 1 1 3.917 3.917l-11.039 11.037a2.765 2.765 0 0 1 -1.959.811z" fill="#ffea92"/><path d="m133.652 95.564h-15.608a2.77 2.77 0 0 1 0-5.54h15.608a2.77 2.77 0 0 1 0 5.54z" fill="#ffea92"/><path d="m42.336 95.564h-15.608a2.77 2.77 0 0 1 0-5.54h15.608a2.77 2.77 0 1 1 0 5.54z" fill="#ffea92"/><path d="m81.1 186.75h-1.82a13.74 13.74 0 0 1 -13.726-12.85 3.63 3.63 0 0 1 -1.033-2.542v-5.658a3.636 3.636 0 0 1 .172-1.11 3.628 3.628 0 0 1 -.719-2.171v-5.651a3.643 3.643 0 0 1 3.64-3.639h25.152a3.644 3.644 0 0 1 3.64 3.639v5.651a3.622 3.622 0 0 1 -.719 2.171 3.636 3.636 0 0 1 .173 1.11v5.65a3.631 3.631 0 0 1 -1.034 2.542 13.773 13.773 0 0 1 -13.726 12.858zm-12.579-15.619a2 2 0 0 1 1 1.735v.128a9.745 9.745 0 0 0 9.756 9.756h1.823a9.766 9.766 0 0 0 9.755-9.756v-.128a2 2 0 0 1 1-1.735v-5.1a2 2 0 0 1 .359-3.968h.187v-4.93h-24.427v4.93h.187a2 2 0 0 1 .36 3.968z" fill="#3762cc"/><path d="m80.19 157.132a2 2 0 0 1 -1.92-1.441l-9.182-31.538a2 2 0 0 1 3.841-1.118l7.261 24.942 7.261-24.942a2 2 0 0 1 3.841 1.118l-9.182 31.538a2 2 0 0 1 -1.92 1.441z" fill="#3762cc"/><path d="m92.219 166.063h-24.058a2 2 0 0 1 0-4h24.058a2 2 0 0 1 0 4z" fill="#3762cc"/><path d="m92.855 174.994h-25.331a2 2 0 0 1 0-4h25.331a2 2 0 0 1 0 4z" fill="#3762cc"/></svg>