<svg height="511pt" viewBox="1 -2 511.99949 511" width="511pt" xmlns="http://www.w3.org/2000/svg"><path d="m7.644531 71.210938c-1.957031 0-3.914062-.746094-5.40625-2.238282-2.984375-2.988281-2.984375-7.828125 0-10.8125l23.785157-23.78125c2.984374-2.984375 7.824218-2.984375 10.808593 0 2.988281 2.984375 2.988281 7.824219 0 10.808594l-23.78125 23.785156c-1.492187 1.492188-3.449219 2.238282-5.40625 2.238282zm0 0" fill="#f0a8d0"/><path d="m31.429688 71.210938c-1.957032 0-3.914063-.746094-5.40625-2.238282l-23.785157-23.785156c-2.984375-2.984375-2.984375-7.824219 0-10.808594s7.828125-2.984375 10.8125 0l23.78125 23.78125c2.988281 2.988282 2.988281 7.828125 0 10.8125-1.492187 1.492188-3.445312 2.238282-5.402343 2.238282zm0 0" fill="#f0a8d0"/><path d="m200.632812 55.867188c0-30.578126 24.789063-55.367188 55.367188-55.367188s55.367188 24.789062 55.367188 55.367188zm0 0" fill="#86919e"/><path d="m256 .5c-7.984375 0-15.566406 1.703125-22.421875 4.746094 19.402344 8.605468 32.941406 28.027344 32.941406 50.621094h44.847657c0-30.578126-24.789063-55.367188-55.367188-55.367188zm0 0" fill="#77818c"/><path d="m134.863281 232.355469v-67.882813c0-66.902344 54.234375-121.136718 121.136719-121.136718s121.136719 54.234374 121.136719 121.136718v67.882813zm0 0" fill="#86919e"/><path d="m256 43.335938c-7.664062 0-15.15625.722656-22.421875 2.082031 56.183594 10.515625 98.710937 59.816406 98.710937 119.054687v67.882813h44.847657v-67.882813c0-66.902344-54.234375-121.136718-121.136719-121.136718zm0 0" fill="#77818c"/><path d="m361.597656 214.503906c10.746094 0 19.460938 8.710938 19.460938 19.460938s-8.714844 19.460937-19.460938 19.460937h-211.195312c-10.75 0-19.460938-8.710937-19.460938-19.460937s8.710938-19.460938 19.460938-19.460938zm0 0" fill="#fad0bb"/><path d="m281.375 141.6875s14.765625 44.292969 69.671875 48.445312h-.324219v51.398438c0 14.488281-4.3125 30.253906-10.125 42.53125h-169.195312c-5.8125-12.277344-10.128906-28.042969-10.128906-42.53125v-54.488281l.140624-1.0625s63.738282 3.125 119.226563-43.59375c.960937-.808594.734375-.699219.734375-.699219zm0 0" fill="#faded2"/><path d="m281.375 141.6875s.003906.011719.007812.023438c.03125-.039063-.007812-.023438-.007812-.023438zm0 0" fill="#faded2"/><path d="m281.386719 141.710938c-.039063.054687-.195313.214843-.746094.675781-10.136719 8.535156-20.546875 15.398437-30.792969 20.929687 6.859375 7.804688 16.808594 15.996094 30.828125 21.308594 15.445313 5.847656 25.429688 20.925781 25.324219 37.441406l-.121094 19.464844c0 14.488281-4.316406 30.253906-10.128906 42.53125h44.847656c5.8125-12.277344 10.128906-28.042969 10.128906-42.53125v-51.398438h.320313c-54.242187-4.101562-69.304687-47.378906-69.660156-48.421874zm0 0" fill="#fad7c8"/><path d="m240.054688 235.019531c-4.222657 0-7.644532-3.421875-7.644532-7.644531 0-6.070312-4.941406-11.011719-11.015625-11.011719s-11.011719 4.941407-11.011719 11.011719c0 4.222656-3.425781 7.644531-7.644531 7.644531-4.222656 0-7.644531-3.421875-7.644531-7.644531 0-14.5 11.796875-26.300781 26.300781-26.300781 14.503907 0 26.304688 11.796875 26.304688 26.300781 0 4.222656-3.425781 7.644531-7.644531 7.644531zm0 0" fill="#86919e"/><path d="m309.261719 235.019531c-4.222657 0-7.644531-3.421875-7.644531-7.644531 0-6.070312-4.941407-11.011719-11.011719-11.011719-6.074219 0-11.015625 4.941407-11.015625 11.011719 0 4.222656-3.421875 7.644531-7.644532 7.644531-4.222656 0-7.644531-3.421875-7.644531-7.644531 0-14.5 11.800781-26.300781 26.304688-26.300781 14.503906 0 26.300781 11.796875 26.300781 26.300781 0 4.222656-3.421875 7.644531-7.644531 7.644531zm0 0" fill="#86919e"/><g fill="#b8f9ff"><path d="m68.796875 156.316406c-1.953125 0-3.910156-.746094-5.402344-2.238281-2.988281-2.984375-2.988281-7.824219 0-10.808594l23.78125-23.785156c2.988281-2.984375 7.828125-2.984375 10.8125 0 2.984375 2.988281 2.984375 7.828125 0 10.8125l-23.785156 23.78125c-1.492187 1.492187-3.449219 2.238281-5.40625 2.238281zm0 0"/><path d="m92.582031 156.316406c-1.957031 0-3.914062-.746094-5.40625-2.238281l-23.78125-23.78125c-2.988281-2.988281-2.988281-7.828125 0-10.8125 2.984375-2.984375 7.824219-2.984375 10.808594 0l23.785156 23.785156c2.984375 2.984375 2.984375 7.824219 0 10.808594-1.492187 1.492187-3.449219 2.238281-5.40625 2.238281zm0 0"/><path d="m480.570312 262.316406c-1.953124 0-3.910156-.746094-5.402343-2.238281-2.988281-2.984375-2.988281-7.824219 0-10.808594l23.78125-23.785156c2.988281-2.984375 7.828125-2.984375 10.8125.003906 2.984375 2.984375 2.984375 7.824219 0 10.808594l-23.785157 23.78125c-1.492187 1.492187-3.449218 2.238281-5.40625 2.238281zm0 0"/><path d="m504.355469 262.316406c-1.957031 0-3.914063-.746094-5.40625-2.238281l-23.78125-23.78125c-2.988281-2.984375-2.988281-7.824219 0-10.808594 2.984375-2.988281 7.824219-2.988281 10.808593-.003906l23.785157 23.785156c2.984375 2.984375 2.984375 7.824219 0 10.808594-1.492188 1.492187-3.449219 2.238281-5.40625 2.238281zm0 0"/></g><path d="m7.644531 262.316406c-1.957031 0-3.914062-.746094-5.40625-2.238281-2.984375-2.984375-2.984375-7.824219 0-10.808594l23.785157-23.785156c2.984374-2.984375 7.824218-2.984375 10.808593.003906 2.988281 2.984375 2.988281 7.824219 0 10.808594l-23.78125 23.78125c-1.492187 1.492187-3.449219 2.238281-5.40625 2.238281zm0 0" fill="#f0a8d0"/><path d="m31.429688 262.316406c-1.957032 0-3.914063-.746094-5.40625-2.238281l-23.785157-23.78125c-2.984375-2.984375-2.984375-7.824219 0-10.808594 2.984375-2.988281 7.828125-2.988281 10.8125-.003906l23.78125 23.785156c2.988281 2.984375 2.988281 7.824219 0 10.808594-1.492187 1.492187-3.445312 2.238281-5.402343 2.238281zm0 0" fill="#f0a8d0"/><path d="m64.894531 322.792969v-11.019531c0-15.738282 12.757813-28.5 28.5-28.5h325.210938c15.742187 0 28.5 12.761718 28.5 28.5v167.511718c0 15.738282-12.757813 28.5-28.5 28.5h-353.710938zm0 0" fill="#e6e9ed"/><path d="m418.605469 283.273438h-44.84375c15.738281 0 28.5 12.761718 28.5 28.5v167.511718c0 15.738282-12.761719 28.5-28.5 28.5h44.84375c15.742187 0 28.5-12.757812 28.5-28.5v-167.507812c.003906-15.742188-12.757813-28.503906-28.5-28.503906zm0 0" fill="#cdcdcd"/><path d="m300.464844 385.945312c0-12.28125-9.957032-22.230468-22.234375-22.230468-12.277344 0-22.230469 9.953125-22.230469 22.230468 0-12.28125-9.953125-22.230468-22.230469-22.230468-12.277343 0-22.234375 9.953125-22.234375 22.230468 0 5.453126 1.96875 10.441407 5.226563 14.3125l-.128907.046876 39.367188 42.609374 39.371094-42.609374-.128906-.046876c3.253906-3.871093 5.222656-8.859374 5.222656-14.3125zm0 0" fill="#e577b9"/><path d="m76.367188 318.9375 51.160156 114.402344-38.636719 46.460937-47.238281.265625-38.933594-46.753906 51.105469-114.375zm0 0" fill="#edeff2"/><path d="m72.742188 318.9375.019531 85.769531c0 4.222657-3.421875 7.644531-7.644531 7.644531-4.222657 0-7.644532-3.417968-7.644532-7.644531l-.019531-85.769531zm0 0" fill="#86919e"/><path d="m76.976562 416.761719c0-6.367188-5.308593-11.53125-11.859374-11.53125-6.546876 0-11.855469 5.164062-11.855469 11.53125 0 6.367187 5.308593 11.53125 11.855469 11.53125 6.550781 0 11.859374-5.164063 11.859374-11.53125zm0 0" fill="#86919e"/><path d="m93.601562 507.785156-56.933593-.011718c-5.683594 0-10.292969-4.480469-10.292969-10.007813l-.003906-9.730469c0-5.53125 4.609375-10.015625 10.296875-10.011718l56.933593.011718c5.683594 0 10.292969 4.480469 10.292969 10.007813l.003907 9.730469c.003906 5.53125-4.609376 10.011718-10.296876 10.011718zm0 0" fill="#3ecfdc"/><path d="m426.695312 141.707031v22.4375c0 7.957031 6.589844 14.40625 14.722657 14.40625h4.648437c8.128906 0 14.71875-6.449219 14.71875-14.40625v-22.4375zm0 0" fill="#86919e"/><path d="m508.890625 65.203125c0-35.730469-30.023437-64.597656-66.726563-63.75-34.949218.808594-63.28125 28.996094-63.570312 63.210937-.222656 26.375 15.921875 49.074219 39.085938 58.984376v15.152343c0 7.71875 6.394531 13.972657 14.277343 13.972657h23.566407c7.886718 0 14.277343-6.253907 14.277343-13.972657v-15.152343c23.007813-9.84375 39.089844-32.300782 39.089844-58.445313zm0 0" fill="#fce49d"/><path d="m451.695312 152.777344v-71.632813c2.15625.683594 4.449219 1.070313 6.835938 1.070313 12.371094 0 22.4375-9.921875 22.4375-22.121094 0-4.222656-3.421875-7.644531-7.644531-7.644531-4.222657 0-7.644531 3.421875-7.644531 7.644531 0 3.769531-3.207032 6.832031-7.148438 6.832031-3.21875 0-5.945312-2.046875-6.835938-4.847656v-1.738281c0-2.476563-1.183593-4.675782-3.011718-6.070313-1.335938-1.132812-3.058594-1.816406-4.945313-1.816406-4.21875 0-7.640625 3.417969-7.640625 7.644531 0 3.765625-3.207031 6.832032-7.148437 6.832032-3.941407 0-7.148438-3.066407-7.148438-6.832032 0-4.226562-3.421875-7.644531-7.644531-7.644531s-7.644531 3.417969-7.644531 7.644531c0 12.195313 10.066406 22.121094 22.4375 22.121094 2.613281 0 5.121093-.460938 7.457031-1.277344v71.835938zm0 0" fill="#e0b246"/></svg>