<?xml version="1.0" encoding="UTF-8" standalone="no"?>
<!-- Created with Inkscape (http://www.inkscape.org/) -->

<svg
   version="1.1"
   id="svg4689"
   xml:space="preserve"
   width="682.66669"
   height="682.66669"
   viewBox="0 0 682.66669 682.66669"
   xmlns="http://www.w3.org/2000/svg"
   xmlns:svg="http://www.w3.org/2000/svg"><defs
     id="defs4693"><clipPath
       clipPathUnits="userSpaceOnUse"
       id="clipPath4703"><path
         d="M 0,512 H 512 V 0 H 0 Z"
         id="path4701" /></clipPath></defs><g
     id="g4695"
     transform="matrix(1.3333333,0,0,-1.3333333,0,682.66667)"><g
       id="g4697"><g
         id="g4699"
         clip-path="url(#clipPath4703)"><g
           id="g4705"
           transform="translate(402.2109,418.5811)"><path
             d="M 0,0 C 16.433,7.525 29.909,9.96 40.482,7.9 51.7,2.251 59.669,-15.113 59.669,-45.923 59.669,-80.113 27.986,-104.965 0,-65.492 Z"
             style="fill:#da8bc1;fill-opacity:1;fill-rule:nonzero;stroke:none"
             id="path4707" /></g><g
           id="g4709"
           transform="translate(442.6914,426.4746)"><path
             d="m 0,0 c 7.4,-12.118 9.188,-32.603 9.188,-53.816 0,-22.079 -12.24,-40.276 -49.668,-19.57 V -99.738 C 6.361,-121.19 29.188,-101.274 29.188,-53.816 29.188,-23.008 19.564,-3.813 0,0"
             style="fill:#d273b3;fill-opacity:1;fill-rule:nonzero;stroke:none"
             id="path4711" /></g><g
           id="g4713"
           transform="translate(214.6973,344.8887)"><path
             d="m 0,0 -100.673,-10 c -1.117,-2.939 -2.719,-5.698 -4.783,-8.136 l -26.037,-30.746 c -6.376,-7.528 -3.153,-19.114 6.195,-22.268 l 17.778,-6 c 0,0 -1.376,-6.348 -2.863,-13.78 -0.144,-0.724 -0.211,-1.44 -0.242,-2.15 l 13.717,-11.82 3.715,-35.853 c 0.291,-2.811 0.99,-5.49 2.028,-7.985 l 91.165,0.3 z"
             style="fill:#f4e2c1;fill-opacity:1;fill-rule:nonzero;stroke:none"
             id="path4715" /></g><g
           id="g4717"
           transform="translate(115.7227,374.8887)"><path
             d="m 0,0 0.138,-30 c 0.009,-3.445 -0.631,-6.828 -1.836,-10 H 98.975 L 84.049,-163.096 c 0,0 -38.211,-15.114 -76.239,-15.642 4.304,-10.351 14.501,-17.498 26.231,-17.498 24.034,0 50.008,12.109 50.008,12.109 h 13.498 l 0.124,-99.926 117.013,31.231 v 79.511 c 0,23.432 8.937,37.87 20.901,50.377 l 0,122.934 z"
             style="fill:#f3d69e;fill-opacity:1;fill-rule:nonzero;stroke:none"
             id="path4719" /></g><g
           id="g4721"
           transform="translate(351.0244,131.4053)"><path
             d="m 0,0 -10,23.621 -178.952,-47.95 c -7.912,-2.119 -12.527,-10.119 -10.719,-17.872 z"
             style="fill:#6bbdd5;fill-opacity:1;fill-rule:nonzero;stroke:none"
             id="path4723" /></g><g
           id="g4725"
           transform="translate(341.0244,155.0264)"><path
             d="m 0,0 v -3.49 c 0,-6.789 -4.56,-12.732 -11.118,-14.489 l -178.553,-47.843 c 0.147,-0.627 0.32,-1.253 0.553,-1.874 l 11.605,-31.009 196.395,52.249 v 31.967 C 18.882,-4.626 9.526,2.553 0,0"
             style="fill:#5595a2;fill-opacity:1;fill-rule:nonzero;stroke:none"
             id="path4727" /></g><g
           id="g4729"
           transform="translate(159.251,257.5937)"><path
             d="m 0,0 c -2.006,3.624 -6.568,4.936 -10.194,2.931 -7.683,-4.252 -25.171,-9.217 -38.428,-9.217 -1.19,0 -3.653,0.206 -6.557,0.501 -0.346,-7.805 5.896,-14.564 14.001,-14.564 13.963,0 28.651,4.843 38.247,10.155 C 0.693,-8.188 2.005,-3.625 0,0"
             style="fill:#eaacde;fill-opacity:1;fill-rule:nonzero;stroke:none"
             id="path4731" /></g><g
           id="g4733"
           transform="translate(352.1016,480.7998)"><path
             d="m 0,0 c -23.105,14.922 -52.746,23.7 -88.725,23.7 -138.642,0 -181.158,-48.101 -181.158,-105.283 0,-9.102 1.315,-17.415 2.988,-24.328 l 114.565,-20 v -164.127 c 0,-8.776 -1.311,-16.618 -3.127,-23.283 40.02,20.01 58.732,57.593 58.732,129.074 v 66.238 H 50.064 C 50.064,-62.219 23.009,-23.143 0,0"
             style="fill:#eaacde;fill-opacity:1;fill-rule:nonzero;stroke:none"
             id="path4735" /></g><g
           id="g4737"
           transform="translate(410.8965,383.4502)"><path
             d="M 0,0 C -5.003,40.198 -24.832,75.416 -58.795,97.35 -43.335,74.033 -22.843,35.704 -19.278,-7.66 L -8.73,-20.659 Z"
             style="fill:#da8bc1;fill-opacity:1;fill-rule:nonzero;stroke:none"
             id="path4739" /></g><g
           id="g4741"
           transform="translate(192.2715,419.2344)"><path
             d="m 0,0 c -4.142,0 -7.5,-3.357 -7.5,-7.5 v -36.846 h -99.564 c 2.95,-12.182 7.023,-20 7.023,-20 H 7.5 V -7.5 C 7.5,-3.357 4.143,0 0,0"
             style="fill:#da8bc1;fill-opacity:1;fill-rule:nonzero;stroke:none"
             id="path4743" /></g><g
           id="g4745"
           transform="translate(346.6875,266.1602)"><path
             d="M 0,0 C 26.517,23.459 55.479,48.148 55.479,96.631 L 44.931,109.63 C 3.093,97.029 -48.184,105.617 -83.311,136.755 h -15 l 15,-106.362 49.004,-15.403 z"
             style="fill:#da8bc1;fill-opacity:1;fill-rule:nonzero;stroke:none"
             id="path4747" /></g><g
           id="g4749"
           transform="translate(410.8965,383.4502)"><path
             d="m 0,0 c -6.11,-3.101 -12.578,-5.642 -19.278,-7.66 0.352,-4.288 0.548,-8.622 0.548,-12.999 0,-48.483 -18.962,-63.172 -45.479,-86.631 0.518,3.369 0.793,6.841 0.793,10.393 0,19.95 -14.35,36.123 -32.052,36.123 -17.702,0 -32.052,-16.173 -32.052,-36.123 l 29.004,-5.403 38.927,-29.195 C -35.365,-106.172 1.27,-88.765 1.27,-20.659 1.27,-13.657 0.842,-6.759 0,0"
             style="fill:#d273b3;fill-opacity:1;fill-rule:nonzero;stroke:none"
             id="path4751" /></g><g
           id="g4753"
           transform="translate(256,353.0889)"><path
             d="M 0,0 C 16.687,-17.726 38.871,-24.376 44.406,-27.036 L 0,-71.375 Z"
             style="fill:#d273b3;fill-opacity:1;fill-rule:nonzero;stroke:none"
             id="path4755" /></g><g
           id="g4757"
           transform="translate(263.377,296.5527)"><path
             d="M 0,0 C 0,19.95 14.351,36.123 32.052,36.123 49.753,36.123 64.104,19.95 64.104,0 c 0,-33.743 -24.838,-60.216 -45.487,-60.216 -8.02,0 -17.314,3.194 -22.343,8.492 z"
             style="fill:#f4e2c1;fill-opacity:1;fill-rule:nonzero;stroke:none"
             id="path4759" /></g><g
           id="g4761"
           transform="translate(255.877,474.9365)"><path
             d="m 0,0 c -4.142,0 -7.5,-3.358 -7.5,-7.5 v -170.884 c 0,-62.793 -15.643,-101.57 -51.732,-129.074 -4.119,-15.118 -10.846,-24.16 -10.846,-24.16 54.599,28.23 77.578,77.079 77.578,153.234 V -7.5 C 7.5,-3.358 4.143,0 0,0"
             style="fill:#da8bc1;fill-opacity:1;fill-rule:nonzero;stroke:none"
             id="path4763" /></g><g
           id="g4765"
           transform="translate(292.4062,196.4805)"><path
             d="m 0,0 v 48.165 c 0,7.31 -3.843,13.857 -8.385,15.443 -1.474,0.33 -3.001,0.516 -4.574,0.516 -11.575,0 -20.959,-9.384 -20.959,-20.959 V -2 c 0,-7.188 4.74,-13.662 9.713,-18.48 C -8.103,-20.48 0,-10.5 0,0"
             style="fill:#f5fcff;fill-opacity:1;fill-rule:nonzero;stroke:none"
             id="path4767" /></g><g
           id="g4769"
           transform="translate(284.0215,260.0889)"><path
             d="m 0,0 c 0.881,-2.315 1.385,-4.818 1.385,-7.443 v -56.165 c 0,-6.716 -8.936,-14.61 -17.205,-20.481 5.482,-5.314 11.246,-8.613 11.246,-8.613 0,0 20.959,11.981 20.959,27.094 v 45.165 C 16.385,-10.44 9.373,-2.089 0,0"
             style="fill:#dcf2f6;fill-opacity:1;fill-rule:nonzero;stroke:none"
             id="path4771" /></g><g
           id="g4773"
           transform="translate(498.5,68.0459)"><path
             d="M 0,0 C 0,1.515 0,6.993 -4.646,9.354 -6.025,9.771 -7.485,10 -9,10 c -8.284,0 -15,-6.716 -15,-15 0,-1.515 0.229,-2.975 0.646,-4.354 C -20.16,-15 -16.515,-15 -15,-15 -6.716,-15 0,-8.284 0,0"
             style="fill:#eaacde;fill-opacity:1;fill-rule:nonzero;stroke:none"
             id="path4775" /></g><g
           id="g4777"
           transform="translate(493.8535,77.3994)"><path
             d="m 0,0 c 0.417,-1.379 0.646,-2.839 0.646,-4.354 0,-8.284 -6.715,-15 -15,-15 -1.514,0 -2.974,0.23 -4.353,0.647 1.866,-6.16 7.584,-10.647 14.353,-10.647 8.285,0 15,6.716 15,15 C 10.646,-7.584 6.16,-1.866 0,0"
             style="fill:#da8bc1;fill-opacity:1;fill-rule:nonzero;stroke:none"
             id="path4779" /></g><g
           id="g4781"
           transform="translate(136.2344,22.7754)"><path
             d="M 0,0 -24.067,40.929 C -39.262,36.857 -53.857,30.812 -67.48,22.947 l -41.962,-24.227 48.454,-10 c 15.73,0 45.794,7.209 60.988,11.28"
             style="fill:#dcf2f6;fill-opacity:1;fill-rule:nonzero;stroke:none"
             id="path4783" /></g><g
           id="g4785"
           transform="translate(121.833,27.6289)"><path
             d="m 0,0 c -15.194,-4.072 -30.856,-6.134 -46.587,-6.134 h -48.454 c -6.646,-3.837 -3.923,-13.995 3.75,-13.995 h 48.454 c 15.731,0 31.393,2.063 46.587,6.133 l 10.651,9.142 z"
             style="fill:#bae6ef;fill-opacity:1;fill-rule:nonzero;stroke:none"
             id="path4787" /></g><g
           id="g4789"
           transform="translate(482.7744,163.0078)"><path
             d="m 0,0 -370.607,-99.304 9.666,-36.075 370.607,89.304 c 5.864,1.571 11.569,14.583 7.535,31.351 C 12.851,-4.721 5.864,1.572 0,0"
             style="fill:#f5fcff;fill-opacity:1;fill-rule:nonzero;stroke:none"
             id="path4791" /></g><g
           id="g4793"
           transform="translate(502.3643,141.4238)"><path
             d="M 0,0 C -0.651,2.431 -1.461,4.729 -2.389,6.86 -1.155,-3.977 -4.06,-12.92 -9.924,-14.491 l -370.607,-99.304 3.75,-13.996 370.607,99.305 C 0.94,-26.58 3.705,-13.826 0,0"
             style="fill:#dcf2f6;fill-opacity:1;fill-rule:nonzero;stroke:none"
             id="path4795" /></g><g
           id="g4797"
           transform="translate(21.541,11.5889)"><path
             d="m 0,0 -14.041,-3.763 m 497,55.22 c 0,-8.284 -6.716,-15 -15,-15 -8.284,0 -15,6.716 -15,15 0,8.284 6.716,15 15,15 8.284,0 15,-6.716 15,-15 z M 90.974,50.817 103.694,3.342 m 229.15,11.911 119.137,31.923 m -317.987,18.871 -3.629,9.694 c -3.102,8.293 1.614,17.455 10.167,19.746 l 178.951,47.95 c 9.527,2.553 18.882,-4.625 18.882,-14.488 v -8.452 m 142.458,9.339 c 3.705,-13.827 0.941,-26.581 -6.174,-28.487 L 104.042,2.045 C 88.848,-2.026 73.186,-4.089 57.455,-4.089 H 9.001 c -7.674,0 -10.396,10.158 -3.75,13.995 l 41.962,24.227 c 13.623,7.866 28.219,13.911 43.413,17.982 l 370.607,99.305 c 7.115,1.906 15.885,-7.758 19.59,-21.584 z m -201.958,53.056 c 0,-15.113 -20.959,-27.093 -20.959,-27.093 0,0 -20.959,11.98 -20.959,27.093 v 45.165 c 0,11.575 9.384,20.959 20.959,20.959 11.575,0 20.959,-9.384 20.959,-20.959 z m -87.136,-35.232 0.124,-36.236 m 49.983,381.487 c 97.753,0 148.789,-64.744 148.789,-141.708 0,-101.744 -81.76,-90.343 -81.76,-161.214 v -47.465 m -5.639,117.747 23.908,-17.93 m -85.298,42.623 c 0,19.95 14.351,36.123 32.052,36.123 17.701,0 32.051,-16.173 32.051,-36.123 0,-23.903 -12.463,-44.158 -27.073,-53.939 m -55.191,-84.528 c -8,7.113 -15.519,20.019 -15.519,46.741 V 333.3 m 33.68,129.548 V 284.964 c 0,-76.155 -22.979,-125.004 -77.578,-153.235 0,0 13.972,18.759 13.972,47.445 V 400.146 M 387.825,371.1 C 344.191,349.798 283.604,355.474 243.304,390.047 m 137.365,16.945 c 46.842,21.452 69.67,1.536 69.67,-45.923 0,-45.298 -20.798,-65.505 -63.424,-48.594 m -6.246,94.517 C 334.455,385.827 279.584,396.229 243.303,431.783 M 131.049,344.129 c -2.443,3.93 -12.48,21.417 -12.48,43.499 0,21.443 5.698,41.609 20.13,58.44 M 176.156,343.3 H 70.689 c 0,0 -10.011,19.186 -10.011,44.328 0,57.181 42.515,105.283 181.158,105.283 m -117.26,-185.85 c 7.729,-3.923 20.259,-3.923 27.987,0 M 94.182,364.193 94.319,333.3 C 94.338,326.66 91.991,320.231 87.7,315.164 L 61.663,284.418 c -6.376,-7.528 -3.152,-19.114 6.195,-22.269 l 17.779,-5.999 c 0,0 -1.378,-6.348 -2.864,-13.781 -1.734,-8.672 4.915,-16.713 13.759,-16.713 13.963,0 28.651,4.844 38.247,10.155 m -38.247,-11.95 3.431,-31.314 c 1.5,-14.481 13.702,-25.484 28.26,-25.484 21.529,0 44.614,9.717 49.192,11.743"
             style="fill:none;stroke:#000000;stroke-width:15;stroke-linecap:round;stroke-linejoin:round;stroke-miterlimit:10;stroke-dasharray:none;stroke-opacity:1"
             id="path4799" /></g></g></g></g></svg>
