<svg id="Layer_1" height="512" viewBox="0 0 256 256" width="512" xmlns="http://www.w3.org/2000/svg"><g><g><path d="m221.149 166.706v-33.479h-19.337v17.297c7.03 4.677 13.515 10.108 19.337 16.182z" fill="#eaa97d"/></g><g><path d="m221.148 168.706c-.534 0-1.06-.215-1.444-.616-5.72-5.968-12.112-11.317-19-15.901-.558-.371-.893-.996-.893-1.665v-17.297c0-1.104.896-2 2-2h19.337c1.104 0 2 .896 2 2v33.479c0 .817-.496 1.551-1.254 1.856-.242.097-.495.144-.746.144zm-17.336-19.248c5.447 3.697 10.588 7.86 15.337 12.417v-26.649h-15.337z" fill="#3762cc"/></g><g><path d="m54.188 150.523v-17.297h-19.337v33.479c5.822-6.073 12.307-11.504 19.337-16.182z" fill="#eaa97d"/></g><g><path d="m34.852 168.706c-.251 0-.504-.047-.746-.144-.758-.305-1.254-1.039-1.254-1.856v-33.479c0-1.104.896-2 2-2h19.337c1.104 0 2 .896 2 2v17.297c0 .669-.335 1.294-.893 1.665-6.888 4.583-13.28 9.933-19 15.901-.385.401-.91.616-1.444.616zm2-33.48v26.649c4.749-4.558 9.89-8.72 15.337-12.417v-14.232zm17.336 15.297h.01z" fill="#3762cc"/></g><g><path d="m179.437 138.966v39.531h-.001l-46.836 12.27c-6.531-1.719-48.703-12.817-56.037-14.747v-37.055c-43.019 16.499-73.563 58.184-73.563 107.009v2.186h250v-2.186c0-48.825-30.544-90.51-73.563-107.008z" fill="#6bdddd"/></g><g><path d="m253 250.16h-250c-1.104 0-2-.896-2-2v-2.186c0-46.548 27.615-88.565 70.354-107.044 1.478-.638 2.988-1.254 4.492-1.832.615-.235 1.307-.154 1.85.219s.867.989.867 1.648v35.513l54.038 14.221 44.835-11.747.002-37.987c0-.659.324-1.275.867-1.648.543-.374 1.235-.456 1.849-.219 21.785 8.354 40.401 22.914 53.836 42.102 13.744 19.633 21.01 42.723 21.01 66.774v2.186c0 1.104-.896 2-2 2zm-248-4h246v-.186c0-45.33-27.836-86.775-69.563-104.058v36.58c0 .909-.613 1.704-1.493 1.935l-46.838 12.271c-.333.087-.683.087-1.016 0l-56.037-14.747c-.879-.231-1.491-1.025-1.491-1.934v-34.105c-.544.225-1.085.454-1.621.686-41.272 17.845-67.941 58.421-67.941 103.372zm174.436-67.663h.01z" fill="#3762cc"/></g><g><path d="m252.503 127.833-20.481-34.927h11.192c2.768 0 4.489-3.006 3.089-5.393l-17.584-29.987h7.698c2.768 0 4.489-3.006 3.089-5.393l-24.936-42.523c-1.384-2.36-4.795-2.36-6.179 0l-24.936 42.523c-1.4 2.387.322 5.393 3.089 5.393h7.698l-17.584 29.987c-1.4 2.387.322 5.393 3.089 5.393h11.192l-17.132 29.215h3.39c1.237 0 2.239 1.002 2.239 2.239v8.866h69.976c2.769 0 4.491-3.005 3.091-5.393z" fill="#6bdddd"/></g><g><g><path d="m106.287 197.692 26.313-6.924-60.554-15.935c-10.381-2.732-21.348 3.014-24.447 13.291-3.254 10.79 3.105 22.035 13.911 24.879l27.401 7.211c.053-5.768 3.921-11.021 9.768-12.56l6.667-1.754-1.195-4.542c-.423-1.604.534-3.244 2.136-3.666z" fill="#a4c9ff"/></g></g><g><g><path d="m119.7 122.121c-3.006-2.472-4.924-6.22-4.924-10.416v-.5h-17.445c-6.288 0-11.456 4.788-12.062 10.917h34.431z" fill="#e0ebfc"/></g><g><path d="m171.244 122.121c-.606-6.129-5.774-10.917-12.062-10.917h-17.445v.5c0 4.196-1.918 7.944-4.924 10.416h34.431z" fill="#e0ebfc"/></g></g><g><path d="m128.257 105.284c-4.799 0-9.358-1.009-13.481-2.816v9.236c0 7.445 6.036 13.481 13.481 13.481s13.481-6.036 13.481-13.481v-9.236c-4.123 1.808-8.682 2.816-13.481 2.816z" fill="#f9cfcf"/></g><g><path d="m128.257 127.186c-8.536 0-15.481-6.945-15.481-15.481v-9.236c0-.675.341-1.305.906-1.674s1.278-.428 1.896-.158c4.01 1.757 8.275 2.648 12.679 2.648s8.669-.891 12.678-2.647c.619-.271 1.332-.212 1.896.157.565.37.906.999.906 1.674v9.236c0 8.536-6.944 15.481-15.48 15.481zm-11.482-21.795v6.313c0 6.331 5.15 11.481 11.481 11.481 6.33 0 11.48-5.15 11.48-11.481v-6.313c-3.685 1.258-7.533 1.894-11.48 1.894s-7.796-.636-11.481-1.894z" fill="#3762cc"/></g><g><g><path d="m161.651 64.09h-4.367v-4.409c0-4.349-2.134-8.191-5.403-10.565.013-.02.024-.041.037-.061-3.374 5.146-9.19 8.546-15.803 8.546-33.774 0-34.306.709-40.742-2.381-.33 1.866-.511 3.783-.511 5.742v3.127c-5.799-.118-10.399 4.502-10.399 10.086 0 5.963 5.205 10.679 11.281 10.036 3.446 14.642 16.69 25.55 32.513 25.55s29.066-10.91 32.513-25.55c6.068.642 11.281-4.066 11.281-10.036 0-5.586-4.605-10.202-10.4-10.085z" fill="#f9cfcf"/></g></g><g><path d="m145.594 83.79c-2.331 0-4.221-1.89-4.221-4.221v-4.502c0-2.331 1.89-4.221 4.221-4.221s4.221 1.89 4.221 4.221v4.502c0 2.331-1.89 4.221-4.221 4.221z" fill="#3762cc"/></g><g><path d="m110.911 83.79c-2.331 0-4.221-1.89-4.221-4.221v-4.502c0-2.331 1.89-4.221 4.221-4.221s4.221 1.89 4.221 4.221v4.502c0 2.331-1.89 4.221-4.221 4.221z" fill="#3762cc"/></g><g><path d="m128.253 97.232c-1.3 0-2.44-.155-3.488-.473-1.737-.529-3.265-1.423-4.418-2.586-.777-.784-.771-2.051.013-2.828.786-.778 2.051-.773 2.829.013.688.693 1.635 1.238 2.74 1.574.664.202 1.425.3 2.324.3.9 0 1.66-.098 2.324-.3 1.105-.336 2.053-.881 2.74-1.574.777-.785 2.042-.791 2.829-.013.784.777.79 2.044.013 2.828-1.153 1.163-2.681 2.057-4.418 2.586-1.046.318-2.187.473-3.488.473z" fill="#3762cc"/></g><g><path d="m136.163 19.817c-6.746-.004-12.95.728-20.539 3.113-13.198 4.148-25.04-.229-29.393-2.228-.827-.38-1.769.219-1.769 1.128v12.238c-1.522-.853-3.121-1.805-4.82-2.896-.988-.634-2.23.316-1.859 1.43 2.042 6.139 7.668 19.089 19.723 23.523 2.115.845 4.4 1.353 6.791 1.454 1.231.09 2.509.106 3.844.023h27.974c10.434 0 18.893-8.458 18.893-18.893 0-10.414-8.43-18.887-18.845-18.892z" fill="#4671c6"/></g><g><path d="m119.099 88.029h-19.246c-3.146 0-5.706-2.56-5.706-5.706v-14.73c0-3.146 2.56-5.706 5.706-5.706h19.246c3.146 0 5.705 2.56 5.705 5.706v14.73c0 3.146-2.56 5.706-5.705 5.706zm-19.246-22.142c-.94 0-1.706.765-1.706 1.706v14.73c0 .94.766 1.706 1.706 1.706h19.246c.94 0 1.705-.765 1.705-1.706v-14.73c0-.941-.765-1.706-1.705-1.706z" fill="#3762cc"/></g><g><path d="m156.653 88.029h-19.245c-3.146 0-5.706-2.56-5.706-5.706v-14.73c0-3.146 2.56-5.706 5.706-5.706h19.245c3.146 0 5.706 2.56 5.706 5.706v14.73c0 3.146-2.559 5.706-5.706 5.706zm-19.245-22.142c-.94 0-1.706.765-1.706 1.706v14.73c0 .94.766 1.706 1.706 1.706h19.245c.94 0 1.706-.765 1.706-1.706v-14.73c0-.941-.766-1.706-1.706-1.706z" fill="#3762cc"/></g><g><path d="m133.702 73.817h-10.898c-1.104 0-2-.896-2-2s.896-2 2-2h10.898c1.104 0 2 .896 2 2s-.895 2-2 2z" fill="#3762cc"/></g><g><path d="m152.932 26.712h-2.217c2.683 3.265 4.293 7.446 4.293 11.997 0 3.847-1.152 7.423-3.127 10.407 3.269 2.374 5.403 6.216 5.403 10.565v4.409h8.71v-24.316c0-7.214-5.848-13.062-13.062-13.062z" fill="#4671c6"/></g><g><g><path d="m94.862 64.09v-3.127c0-1.96.182-3.876.511-5.742.042.02.086.038.129.058-1.817-.86-3.476-1.913-4.983-3.103v12.78c1.319-.578 2.785-.897 4.343-.866z" fill="#4671c6"/></g></g><g><path d="m106.395 59.656c-.746 0-1.496-.028-2.243-.083-2.503-.105-5.01-.642-7.387-1.592-13.003-4.781-18.934-18.901-20.878-24.749-.439-1.317-.015-2.721 1.083-3.575 1.103-.858 2.576-.924 3.754-.17.582.374 1.16.737 1.739 1.091v-8.748c0-1.11.558-2.13 1.491-2.729.938-.601 2.101-.682 3.112-.217 4.246 1.95 15.47 6.063 27.959 2.137 7.146-2.245 13.458-3.205 21.093-3.205h.046c11.493.006 20.844 9.379 20.844 20.893 0 11.52-9.372 20.893-20.893 20.893h-27.912c-.598.036-1.202.054-1.808.054zm-25.981-25.641c2.304 6.016 7.643 16.503 17.783 20.233 2.009.802 4.072 1.244 6.185 1.333 1.275.092 2.443.1 3.634.024.042-.002.084-.004.126-.004h27.974c9.314 0 16.893-7.578 16.893-16.893 0-9.31-7.557-16.887-16.846-16.893-.015 0-.029 0-.044 0-7.205 0-13.157.904-19.894 3.021-12.868 4.042-24.461.403-29.762-1.848v11.078c0 .71-.376 1.367-.989 1.726-.612.358-1.37.366-1.988.019-1.042-.582-2.058-1.177-3.072-1.796z" fill="#3762cc"/></g><g><path d="m165.994 66.09h-8.71c-1.104 0-2-.896-2-2v-4.408c0-3.521-1.712-6.865-4.578-8.947-.866-.629-1.084-1.829-.493-2.722 1.828-2.764 2.795-5.981 2.795-9.304 0-3.905-1.363-7.715-3.838-10.728-.491-.598-.594-1.425-.264-2.124.331-.7 1.035-1.146 1.809-1.146h2.217c8.306 0 15.063 6.757 15.063 15.063v24.316c-.001 1.104-.896 2-2.001 2zm-6.71-4h4.71v-22.316c0-5.559-4.122-10.174-9.471-10.948 1.618 3.021 2.484 6.422 2.484 9.883 0 3.504-.869 6.914-2.528 9.963 3.036 2.833 4.805 6.829 4.805 11.01z" fill="#3762cc"/></g><g><g><path d="m90.52 66.957c-.383 0-.764-.11-1.094-.326-.565-.369-.906-.999-.906-1.674v-12.78c0-.767.438-1.465 1.128-1.8.69-.333 1.509-.245 2.111.23 1.446 1.142 2.993 2.105 4.599 2.865l.005.002c.996.475 1.42 1.667.946 2.663-.026.056-.056.11-.086.162-.239 1.564-.36 3.13-.36 4.664v3.126c0 .538-.216 1.052-.6 1.428-.385.376-.921.581-1.44.571-1.211-.021-2.387.211-3.499.699-.259.114-.532.17-.804.17zm2-10.995v6.312c.114-.02.229-.039.343-.056v-1.254c0-1.526.105-3.077.314-4.628-.221-.122-.44-.246-.657-.374z" fill="#3762cc"/></g></g><g><g><path d="m128.257 111.763c-15.979 0-29.751-10.404-34.046-25.501-2.856-.104-5.608-1.199-7.745-3.122-2.544-2.29-4.003-5.557-4.003-8.963 0-3.261 1.288-6.319 3.627-8.61 1.866-1.83 4.22-2.984 6.772-3.351v-1.251c0-2.005.182-4.054.541-6.09.108-.616.5-1.146 1.057-1.432s1.215-.294 1.778-.024c4.833 2.32 5.926 2.315 24.309 2.228 4.219-.02 9.326-.044 15.568-.044 5.711 0 10.993-2.857 14.13-7.642.603-.918 1.834-1.181 2.757-.584.198.127.366.285.502.462 3.63 2.848 5.78 7.234 5.78 11.845v2.408h2.348c3.304-.048 6.442 1.172 8.792 3.476 2.339 2.292 3.627 5.35 3.627 8.61 0 3.407-1.459 6.673-4.002 8.962-2.138 1.923-4.89 3.02-7.746 3.124-4.296 15.094-18.067 25.499-34.046 25.499zm-32.511-29.551c.917 0 1.73.631 1.945 1.542 3.327 14.136 15.896 24.008 30.565 24.008s27.238-9.873 30.565-24.009c.231-.98 1.164-1.638 2.157-1.53 2.367.249 4.639-.481 6.394-2.059 1.702-1.532 2.678-3.714 2.678-5.989 0-2.177-.861-4.22-2.426-5.753-1.583-1.55-3.678-2.365-5.934-2.333-.013 0-.026 0-.04 0h-4.367c-1.104 0-2-.896-2-2v-4.408c0-2.857-1.127-5.599-3.085-7.643-3.948 4.773-9.807 7.563-16.084 7.563-6.234 0-11.336.024-15.55.044-15.841.076-19.459.092-23.569-1.515-.089.951-.134 1.898-.134 2.833v3.126c0 .538-.216 1.052-.601 1.428-.374.367-.877.572-1.399.572-.078-.002-.145-.002-.215-.002-2.18 0-4.218.825-5.758 2.334-1.565 1.534-2.427 3.577-2.427 5.754 0 2.275.977 4.458 2.679 5.99 1.754 1.578 4.024 2.308 6.393 2.058.071-.007.143-.011.213-.011z" fill="#3762cc"/></g></g><g><path d="m104.149 201.357 8.55 32.489c.422 1.602 2.062 2.559 3.665 2.138l72.127-18.981c10.574-2.783 16.89-13.61 14.107-24.184s-13.61-16.89-24.184-14.107l-72.127 18.981c-1.602.421-2.559 2.061-2.138 3.664z" fill="#a4c9ff"/></g><g><path d="m115.592 238.084c-.874 0-1.736-.231-2.511-.683-1.154-.673-1.977-1.755-2.316-3.048l-8.55-32.488h.001c-.341-1.292-.157-2.638.516-3.792s1.755-1.977 3.047-2.316l72.127-18.981c11.621-3.058 23.568 3.909 26.627 15.533 1.481 5.63.682 11.501-2.252 16.53s-7.65 8.615-13.281 10.097l-72.127 18.98c-.425.113-.854.168-1.281.168zm67.856-58.027c-1.495 0-3.013.19-4.525.588l-72.127 18.981c-.349.092-.531.33-.609.463-.078.134-.194.41-.104.758h.001l8.55 32.489c.091.349.329.531.462.609.134.078.409.194.758.103l72.128-18.98c4.598-1.21 8.448-4.138 10.844-8.244s3.049-8.899 1.838-13.497c-2.1-7.977-9.327-13.27-17.216-13.27z" fill="#3762cc"/></g><g><g><path d="m119.699 124.121h-34.429c-.564 0-1.103-.239-1.482-.657s-.563-.978-.508-1.54c.717-7.251 6.758-12.72 14.052-12.72h17.444c1.104 0 2 .896 2 2v.5c0 3.446 1.528 6.679 4.194 8.872.652.536.897 1.424.612 2.219s-1.038 1.326-1.883 1.326zm-31.975-4h27.535c-1.34-2.065-2.172-4.431-2.411-6.917h-15.517c-4.461 0-8.268 2.853-9.607 6.917z" fill="#3762cc"/></g><g><path d="m171.244 124.121h-34.431c-.845 0-1.598-.53-1.883-1.325s-.04-1.684.612-2.22c2.666-2.191 4.194-5.425 4.194-8.871v-.5c0-1.104.896-2 2-2h17.445c7.294 0 13.335 5.468 14.052 12.72.056.562-.129 1.121-.508 1.54-.378.417-.916.656-1.481.656zm-29.99-4h27.536c-1.34-4.064-5.146-6.917-9.607-6.917h-15.518c-.239 2.486-1.071 4.852-2.411 6.917z" fill="#3762cc"/></g></g><g><path d="m115.592 238.084c-.874 0-1.736-.231-2.511-.683-1.154-.673-1.977-1.755-2.316-3.048l-8.55-32.488h.001c-.341-1.292-.157-2.638.516-3.792s1.755-1.977 3.047-2.316l72.127-18.981c11.621-3.058 23.568 3.909 26.627 15.533 1.481 5.63.682 11.501-2.252 16.53s-7.65 8.615-13.281 10.097l-72.127 18.98c-.425.113-.854.168-1.281.168zm67.856-58.027c-1.495 0-3.013.19-4.525.588l-72.127 18.981c-.349.092-.531.33-.609.463-.078.134-.194.41-.104.758h.001l8.55 32.489c.091.349.329.531.462.609.134.078.409.194.758.103l72.128-18.98c4.598-1.21 8.448-4.138 10.844-8.244s3.049-8.899 1.838-13.497c-2.1-7.977-9.327-13.27-17.216-13.27z" fill="#3762cc"/></g><g><path d="m105.344 205.899-6.667 1.754c-7.007 1.844-11.192 9.019-9.348 16.025 1.844 7.007 9.019 11.192 16.025 9.348l6.667-1.754z" fill="#4671c6"/></g><g><path d="m101.991 235.465c-2.643 0-5.249-.699-7.593-2.066-3.488-2.035-5.975-5.306-7.003-9.212-2.121-8.062 2.712-16.347 10.773-18.468l6.667-1.754c.513-.136 1.059-.061 1.517.207s.791.706.927 1.219l6.677 25.374c.135.513.061 1.059-.207 1.517s-.706.792-1.219.926l-6.666 1.754c-1.282.336-2.582.503-3.873.503zm1.929-27.123-4.733 1.245c-5.929 1.56-9.482 7.653-7.922 13.583.755 2.872 2.584 5.278 5.149 6.774 2.566 1.497 5.559 1.905 8.433 1.148l4.731-1.245z" fill="#3762cc"/></g><g><g><path d="m110.613 227.925c-.887 0-1.697-.594-1.934-1.492l-3.321-12.62c-.045-.171-.066-.343-.066-.512.001-.886.595-1.695 1.492-1.931 1.068-.282 2.162.357 2.443 1.425l3.321 12.62c.045.171.066.343.066.512-.001.886-.595 1.695-1.492 1.931-.169.046-.341.067-.509.067z" fill="#3762cc"/></g><g><path d="m88.91 222.213c-.17 0-.341-.021-.509-.066l-27.4-7.21c-5.773-1.519-10.559-5.225-13.475-10.436-2.915-5.208-3.569-11.229-1.843-16.955 3.346-11.095 15.4-17.665 26.871-14.648l60.554 15.936c.879.231 1.491 1.025 1.491 1.934s-.612 1.703-1.491 1.934l-26.313 6.924c-.349.092-.531.33-.609.463s-.194.41-.104.758l1.196 4.542c.135.513.061 1.059-.207 1.517s-.706.792-1.219.926l-6.667 1.754c-4.827 1.27-8.23 5.647-8.276 10.644-.006.617-.296 1.197-.786 1.571-.352.27-.779.412-1.213.412zm-22.047-46.052c-7.812 0-15.07 4.979-17.35 12.54-1.411 4.678-.877 9.595 1.503 13.847 2.381 4.254 6.289 7.28 11.002 8.521l25.126 6.612c1.021-5.71 5.282-10.451 11.024-11.961l4.732-1.246-.687-2.608c-.34-1.291-.156-2.638.517-3.792.673-1.153 1.755-1.976 3.047-2.316l18.963-4.99-53.204-14.001c-1.556-.411-3.125-.606-4.673-.606zm31.815 31.492h.01z" fill="#3762cc"/></g></g><g><path d="m177.198 122.121h-98.396c-1.237 0-2.239 1.002-2.239 2.239v51.661c7.334 1.93 49.506 13.028 56.037 14.747l46.836-12.271h.001v-54.137c0-1.237-1.002-2.239-2.239-2.239z" fill="#4671c6"/></g><g><path d="m249.413 135.226h-69.976c-1.104 0-2-.896-2-2v-8.866c0-.132-.107-.239-.239-.239h-3.391c-.717 0-1.379-.384-1.735-1.006s-.353-1.387.01-2.006l15.366-26.203h-7.701c-2.025 0-3.836-1.049-4.843-2.807s-.996-3.851.029-5.598l15.817-26.975h-4.206c-2.026 0-3.837-1.05-4.844-2.808s-.996-3.85.028-5.597l24.936-42.523c1.013-1.727 2.813-2.758 4.815-2.758 2.001 0 3.802 1.031 4.814 2.758l24.937 42.523c1.024 1.748 1.034 3.841.027 5.598s-2.817 2.807-4.843 2.807h-4.206l15.818 26.975c1.024 1.747 1.035 3.839.028 5.598-1.007 1.758-2.817 2.807-4.843 2.807h-7.701l18.716 31.915c1.024 1.748 1.034 3.84.027 5.598s-2.815 2.807-4.84 2.807zm-67.975-4h67.976c.827 0 1.235-.556 1.372-.795s.411-.873-.008-1.586l-20.481-34.926c-.362-.619-.366-1.384-.01-2.006s1.019-1.006 1.735-1.006h11.192c.827 0 1.235-.556 1.372-.795s.41-.872-.008-1.585l-17.585-29.987c-.362-.619-.366-1.384-.01-2.006s1.019-1.006 1.735-1.006h7.697c.827 0 1.235-.556 1.372-.795s.411-.873-.008-1.586l-24.937-42.523c-.413-.705-1.092-.781-1.363-.781-.272 0-.951.076-1.364.781l-24.936 42.523c-.419.713-.146 1.347-.009 1.585.138.239.546.796 1.373.796h7.697c.717 0 1.379.384 1.735 1.006s.353 1.387-.01 2.006l-17.584 29.987c-.419.714-.146 1.347-.009 1.586s.545.795 1.372.795h11.192c.717 0 1.379.384 1.735 1.006s.353 1.387-.01 2.006l-15.367 26.204c2.292.053 4.14 1.934 4.14 4.238v6.864z" fill="#3762cc"/></g><g><path d="m132.243 163.762h-8.485c-2.061 0-3.732-1.671-3.732-3.732v-8.485c0-2.061 1.671-3.732 3.732-3.732h8.485c2.061 0 3.732 1.671 3.732 3.732v8.485c-.001 2.061-1.671 3.732-3.732 3.732z" fill="#a4c9ff"/></g><g><path d="m132.242 165.762h-8.484c-3.161 0-5.732-2.571-5.732-5.732v-8.485c0-3.161 2.571-5.732 5.732-5.732h8.484c3.161 0 5.732 2.571 5.732 5.732v8.485c.001 3.161-2.571 5.732-5.732 5.732zm-8.484-15.949c-.955 0-1.732.777-1.732 1.732v8.485c0 .955.777 1.732 1.732 1.732h8.484c.955 0 1.732-.777 1.732-1.732v-8.485c0-.955-.777-1.732-1.732-1.732z" fill="#3762cc"/></g><g><path d="m76.563 124.36c0-1.237 1.002-2.239 2.239-2.239h3.39l-17.131-29.215h11.192c2.768 0 4.489-3.006 3.089-5.393l-17.584-29.987h7.698c2.768 0 4.489-3.006 3.089-5.393l-24.936-42.523c-1.384-2.36-4.795-2.36-6.179 0l-24.936 42.523c-1.4 2.387.322 5.393 3.089 5.393h7.698l-17.584 29.987c-1.4 2.387.322 5.393 3.089 5.393h11.192l-20.481 34.927c-1.4 2.388.322 5.393 3.089 5.393h69.976v-8.866z" fill="#6bdddd"/></g><g><path d="m76.563 135.226h-69.976c-2.025 0-3.836-1.049-4.843-2.807s-.997-3.85.027-5.598l18.716-31.916h-7.701c-2.025 0-3.836-1.049-4.843-2.807s-.996-3.851.029-5.598l15.818-26.974h-4.206c-2.025 0-3.836-1.049-4.843-2.807s-.997-3.85.027-5.598l24.937-42.523c1.013-1.727 2.813-2.758 4.814-2.758 2.002 0 3.803 1.031 4.815 2.758l24.936 42.523c1.024 1.747 1.035 3.839.028 5.597s-2.817 2.808-4.844 2.808h-4.206l15.818 26.975c1.024 1.747 1.035 3.839.028 5.598-1.007 1.758-2.817 2.807-4.843 2.807h-7.701l15.366 26.203c.362.619.366 1.384.01 2.006s-1.019 1.006-1.735 1.006h-3.391c-.132 0-.239.107-.239.239v8.866c.002 1.105-.894 2-1.998 2zm-32.043-125.386c-.271 0-.95.076-1.363.781l-24.937 42.524c-.419.713-.145 1.347-.008 1.586s.545.795 1.372.795h7.697c.717 0 1.379.384 1.735 1.006s.353 1.387-.01 2.006l-17.583 29.987c-.419.714-.146 1.347-.009 1.586s.545.795 1.372.795h11.192c.717 0 1.379.384 1.735 1.006s.353 1.387-.01 2.006l-20.48 34.927c-.419.713-.145 1.347-.008 1.586s.545.795 1.372.795h67.976v-6.866c0-2.304 1.848-4.185 4.14-4.238l-15.368-26.204c-.362-.619-.366-1.384-.01-2.006s1.019-1.006 1.735-1.006h11.192c.827 0 1.235-.556 1.372-.795s.41-.872-.008-1.585l-17.584-29.988c-.362-.619-.366-1.384-.01-2.006s1.019-1.006 1.735-1.006h7.697c.827 0 1.235-.557 1.373-.796.137-.239.41-.872-.009-1.585l-24.934-42.523c-.413-.705-1.092-.782-1.364-.782z" fill="#3762cc"/></g><g><path d="m132.6 192.768c-.171 0-.342-.022-.509-.066l-56.037-14.747c-.879-.231-1.491-1.025-1.491-1.934v-51.661c0-2.337 1.901-4.239 4.239-4.239h98.396c2.338 0 4.239 1.902 4.239 4.239v54.137c0 .909-.613 1.704-1.493 1.935l-46.838 12.271c-.166.043-.336.065-.506.065zm-54.037-18.289 54.038 14.221 44.835-11.747.002-52.593c0-.132-.107-.239-.239-.239h-98.397c-.132 0-.239.107-.239.239zm100.873 4.018h.01z" fill="#3762cc"/></g></g></svg>