<svg id="Capa_1" enable-background="new 0 0 511.871 511.871" height="512" viewBox="0 0 511.871 511.871" width="512" xmlns="http://www.w3.org/2000/svg"><g><g><g><path d="m350.269 122.153c1.019-5.888 1.5-11.961 1.389-18.166-.937-52.331-44.38-94.514-96.716-93.982-52.417.533-94.743 43.19-94.743 95.733 0 5.81.519 11.499 1.511 17.023 2.365 13.158-1.655 26.651-10.637 36.553-15.346 16.919-24.722 39.351-24.803 63.973-.17 51.624 41.278 94.511 92.88 96.017 12.983.379 25.401-1.836 36.786-6.152 11.385 4.316 23.803 6.531 36.786 6.152 51.603-1.507 93.05-44.393 92.88-96.017-.081-24.62-9.456-47.051-24.8-63.97-9.128-10.064-12.85-23.777-10.533-37.164z" fill="#ff7d97"/></g><g><path d="m148.677 425.162c-38.828 0-68.577-34.516-62.847-72.919l2.968-19.893c11.22-75.21 75.806-130.875 151.848-130.875h14.041 2.498 14.041c76.042 0 140.628 55.665 151.848 130.875l2.968 19.893c5.729 38.403-24.02 72.919-62.847 72.919z" fill="#ffcd69"/></g><g><path d="m255.936 226.646c-14.06 0-25.458-11.398-25.458-25.458v-42.67h50.915v42.67c0 14.06-11.398 25.458-25.457 25.458z" fill="#ffd0c7"/></g><g><g><path d="m204.981 106.781v21.926c0 28.096 22.473 51.384 50.568 51.592 28.318.21 51.341-22.683 51.341-50.953v-22.566h-101.909z" fill="#ffd0c7"/></g></g><g><g><path d="m282.894 449.625-175.381-30.092c-25.335-4.347-48.48 15.166-48.48 40.87 0 22.902 18.566 41.468 41.468 41.468h182.394v-52.246z" fill="#a0e5a5"/></g><g><path d="m337.794 449.625h-54.899v52.246h54.899c14.427 0 26.123-11.696 26.123-26.123s-11.696-26.123-26.123-26.123z" fill="#fff"/></g><g><path d="m228.977 449.625 175.381-30.092c25.335-4.347 48.48 15.166 48.48 40.87 0 22.902-18.566 41.468-41.468 41.468h-182.393z" fill="#a0e5a5"/></g><g><path d="m174.077 449.625h54.899v52.246h-54.899c-14.427 0-26.123-11.696-26.123-26.123s11.696-26.123 26.123-26.123z" fill="#ffd0c7"/></g></g><g><path d="m343.913 278.668h-175.954c-10.094 0-18.278 8.183-18.278 18.278v114.264c0 10.094 8.183 18.278 18.278 18.278h175.954c10.094 0 18.278-8.183 18.278-18.278v-114.265c-.001-10.094-8.184-18.277-18.278-18.277z" fill="#33d6f5"/></g></g><g><path d="m444.544 421.053c-7.381-6.223-16.229-10.154-25.54-11.546 13.909-16.21 20.081-37.608 16.928-58.739l-2.968-19.894c-4.704-31.532-18.681-61.133-39.802-84.812 1.635-7.474 2.464-15.12 2.439-22.809-.086-26.18-9.814-51.271-27.393-70.654-6.97-7.686-9.918-18.161-8.087-28.741 1.139-6.574 1.654-13.32 1.533-20.051-1.027-57.464-48.351-103.807-105.73-103.807-.359 0-.725.002-1.084.006-28.014.284-54.306 11.409-74.031 31.324-19.74 19.93-30.611 46.354-30.611 74.407 0 6.305.562 12.627 1.669 18.792 1.787 9.942-1.279 20.435-8.201 28.066-17.581 19.382-27.31 44.476-27.396 70.658-.026 7.685.801 15.335 2.437 22.812-21.12 23.678-35.096 53.277-39.8 84.809l-2.968 19.894c-3.152 21.13 3.019 42.528 16.927 58.738-9.311 1.392-18.159 5.325-25.539 11.547-11.627 9.801-18.295 24.144-18.295 39.351 0 28.38 23.088 51.468 51.468 51.468h186.083c5.522 0 10-4.478 10-10s-4.478-10-10-10h-47.606v-33.815l167.073-28.667c9.162-1.574 18.495.963 25.604 6.955s11.186 14.762 11.186 24.06c0 17.352-14.116 31.468-31.468 31.468h-34.788c-5.522 0-10 4.478-10 10s4.478 10 10 10h34.788c28.38 0 51.468-23.088 51.468-51.468-.001-15.209-6.669-29.551-18.296-39.352zm-270.466 70.818c-8.89 0-16.123-7.232-16.123-16.123s7.233-16.123 16.123-16.123h44.899v32.246zm-14.397-80.661v-114.265c0-4.564 3.713-8.277 8.278-8.277h175.954c4.564 0 8.278 3.713 8.278 8.277v114.265c0 4.564-3.714 8.277-8.278 8.277h-175.955c-4.564 0-8.277-3.713-8.277-8.277zm-1.201-245.178c11.062-12.197 15.948-29.034 13.072-45.04-.898-5-1.354-10.133-1.354-15.255 0-22.746 8.815-44.173 24.82-60.333 15.995-16.148 37.312-25.169 60.025-25.4 46.905-.45 85.776 37.277 86.616 84.162.098 5.471-.32 10.947-1.244 16.281-2.889 16.692 1.843 33.309 12.979 45.588 14.251 15.714 22.138 36.058 22.207 57.285.006 1.894-.053 3.785-.172 5.67-23.951-19.78-53.264-32.438-84.036-36.267v-13.844c15.422-11.071 25.496-29.142 25.496-49.533v-43.095c.021-3.916-2.272-7.646-6.104-9.267-5.087-2.154-10.954.229-13.105 5.314-3.721 8.797-12.297 14.481-21.848 14.481h-11.539c2.503-4.486 1.201-10.217-3.134-13.146-4.577-3.092-10.793-1.887-13.884 2.688-4.424 6.549-11.775 10.458-19.664 10.458h-22.63c-5.523 0-10 4.478-10 10v22.566c0 20.391 10.075 38.461 25.497 49.533v13.844c-30.773 3.829-60.086 16.487-84.038 36.268-.119-1.885-.177-3.777-.171-5.671.07-21.228 7.958-41.573 22.211-57.287zm56.501-49.252h60.851c7.537 0 14.741-1.926 21.058-5.395v17.961c0 22.582-18.372 40.954-40.954 40.954s-40.954-18.372-40.954-40.954v-12.566zm25.497 71.53c4.939 1.296 10.118 1.991 15.458 1.991s10.519-.695 15.458-1.991v12.879c0 8.523-6.935 15.457-15.458 15.457s-15.458-6.934-15.458-15.457zm-144.758 165.409 2.968-19.894c4.795-32.142 20.557-62.002 44.382-84.081 21.91-20.304 49.841-33.317 79.318-37.102 4.775 13.945 18.005 24.003 33.548 24.003 15.544 0 28.774-10.058 33.549-24.003 29.478 3.785 57.409 16.799 79.319 37.104 23.824 22.078 39.585 51.938 44.38 84.079l2.968 19.894c2.301 15.423-2.218 31.044-12.398 42.855-8.24 9.561-19.493 15.817-31.751 17.857.121-1.058.189-2.131.189-3.221v-30.22l9.619-7.504c4.354-3.397 5.131-9.681 1.734-14.035-2.746-3.521-7.379-4.699-11.354-3.229v-59.277c0-15.592-12.686-28.277-28.278-28.277h-175.955c-15.592 0-28.278 12.686-28.278 28.277v59.278c-3.975-1.471-8.607-.293-11.354 3.228-3.397 4.354-2.621 10.638 1.734 14.035l9.62 7.504v30.22c0 1.09.068 2.163.189 3.221-12.258-2.041-23.512-8.296-31.75-17.856-10.181-11.812-14.7-27.432-12.399-42.856zm-26.688 106.684c0-9.298 4.077-18.066 11.186-24.06 7.108-5.992 16.437-8.533 25.604-6.954l62.43 10.712c-17.157 2.794-30.297 17.712-30.297 35.646 0 5.792 1.378 11.266 3.812 16.123h-41.267c-17.352.001-31.468-14.115-31.468-31.467z"/><path d="m246.695 364.078h18.48c5.522 0 10-4.478 10-10s-4.478-10-10-10h-18.48c-5.523 0-10 4.478-10 10s4.477 10 10 10z"/><circle cx="331.585" cy="501.871" r="10"/></g></g></svg>